<?xml version="1.0" encoding="UTF-8"?>
<svg id="Lager_1" data-name="Lager 1" xmlns="http://www.w3.org/2000/svg" viewBox="0 0 582.27 138.79">
  <defs>
    <style>
      .cls-1 {
        fill: #5c2121;
      }
    </style>
  </defs>
  <path class="cls-1" d="M559.02,138.79c-.71,0-1.32-.25-1.84-.74-.5-.52-.74-1.13-.74-1.84v-15.5c0-.71.25-1.31.74-1.81.52-.52,1.13-.77,1.84-.77h20.67c.71,0,1.31.26,1.81.77.52.5.77,1.1.77,1.81v15.5c0,.71-.26,1.32-.77,1.84s-1.1.74-1.81.74h-20.67ZM570.54,129.01l9.14-5.71h0c0-1.12-1.24-1.81-2.19-1.21l-8.14,5.09-8.14-5.09c-.95-.6-2.19.09-2.19,1.21h0s9.14,5.71,9.14,5.71c.73.45,1.65.45,2.38,0Z"/>
</svg>